<svg version="1.1" xmlns="http://www.w3.org/2000/svg" viewBox="0 0 16 16" xml:space="preserve">
<path fill="#fff" d="M13.3,0H2.7C1.2,0,0,1.2,0,2.7v10.7C0,14.8,1.2,16,2.7,16h10.7c1.5,0,2.7-1.2,2.7-2.7c0,0,0,0,0,0V2.7
	C16,1.2,14.8,0,13.3,0C13.3,0,13.3,0,13.3,0z M13.1,12.2c0,0.5-0.4,0.8-0.8,0.8H3.8c-0.5,0-0.8-0.4-0.8-0.8c0,0,0,0,0,0V3.8
	c0-0.5,0.4-0.8,0.8-0.8c0,0,0,0,0,0h8.5c0.5,0,0.8,0.4,0.8,0.8c0,0,0,0,0,0C13.1,3.8,13.1,12.2,13.1,12.2z"/>
<path fill="#fff" d="M6.3,10.2C6,10.2,5.8,10,5.8,9.7V6.3C5.8,6,6,5.8,6.3,5.8h3.4c0.3,0,0.5,0.2,0.5,0.5v3.4c0,0.3-0.2,0.5-0.5,0.5
	C9.7,10.2,6.3,10.2,6.3,10.2z"/>
</svg>
